HIERARCHY
ROOT Elbow
{
	OFFSET	0.00	0.00	0.00
	CHANNELS 6 Xposition Yposition Zposition Zrotation Xrotation Yrotation
	JOINT L_Wrist
	{
		OFFSET	 0.208349	 0.000000	 0.000000
		CHANNELS 3 Zrotation Xrotation Yrotation
		JOINT L_index_Proximal
		{
			OFFSET	 0.093499	 0.010637	-0.002083
			CHANNELS 3 Zrotation Xrotation Yrotation
			JOINT L_index_b
			{
				OFFSET	 0.033152	 0.000000	 0.000000
				CHANNELS 3 Zrotation Xrotation Yrotation
				JOINT L_index_c
				{
					OFFSET	 0.018651	 0.000000	 0.000000
					CHANNELS 3 Zrotation Xrotation Yrotation
					End Site
					{
						OFFSET	 0.018651	 0.000000	 0.000000
					}
				}
			}
		}
		JOINT L_middle_Proximal
		{
			OFFSET	 0.090632	-0.006115	-0.003750
			CHANNELS 3 Zrotation Xrotation Yrotation
			JOINT L_middle_b
			{
				OFFSET	 0.037195	 0.000000	 0.000000
				CHANNELS 3 Zrotation Xrotation Yrotation
				JOINT L_middle_c
				{
					OFFSET	 0.021943	 0.000000	 0.000000
					CHANNELS 3 Zrotation Xrotation Yrotation
					End Site
					{
						OFFSET	 0.021943	 0.000000	 0.000000
					}
				}
			}
		}
		JOINT L_pinky_Proximal
		{
			OFFSET	 0.074015	-0.035449	-0.000417
			CHANNELS 3 Zrotation Xrotation Yrotation
			JOINT L_pinky_b
			{
				OFFSET	 0.027285	 0.000000	 0.000000
				CHANNELS 3 Zrotation Xrotation Yrotation
				JOINT L_pinky_c
				{
					OFFSET	 0.015093	 0.000000	 0.000000
					CHANNELS 3 Zrotation Xrotation Yrotation
					End Site
					{
						OFFSET	 0.015093	 0.000000	 0.000000
					}
				}
			}
		}
		JOINT L_ring_Proximal
		{
			OFFSET	 0.082801	-0.021859	-0.003750
			CHANNELS 3 Zrotation Xrotation Yrotation
			JOINT L_ring_b
			{
				OFFSET	 0.034478	 0.000000	 0.000000
				CHANNELS 3 Zrotation Xrotation Yrotation
				JOINT L_ring_c
				{
					OFFSET	 0.021377	 0.000000	 0.000000
					CHANNELS 3 Zrotation Xrotation Yrotation
					End Site
					{
						OFFSET	 0.021377	 0.000000	 0.000000
					}
				}
			}
		}
		JOINT L_thumb_Proximal
		{
			OFFSET	 0.030306	 0.018528	 0.004584
			CHANNELS 3 Zrotation Xrotation Yrotation
			JOINT L_thumb_a
			{
				OFFSET	 0.038520	 0.000000	 0.000000
				CHANNELS 3 Zrotation Xrotation Yrotation
				JOINT L_thumb_b
				{
					OFFSET	 0.026310	 0.000000	 0.000000
					CHANNELS 3 Zrotation Xrotation Yrotation
					End Site
					{
						OFFSET	 0.026310	 0.000000	 0.000000
					}
				}
			}
		}
	}
}
MOTION
Frames:    17
Frame Time: 0.01666667
 0.133642	-0.066493	 0.778957	 101.305900	 14.494990	 39.190810	 7.305893	 1.948516	 11.124570	-2.195114	 1.364740	-63.892730	 1.899572	-1.731216	-84.689650	 4.724886	-2.032899	-46.540830	-10.630820	-7.475314	-82.725490	 3.269254	-3.348268	-91.368840	 0.092973	-0.038860	-45.373390	-32.230360	-14.785360	-86.024780	 0.123703	-0.115111	-85.879100	-3.080679	 1.272345	-44.874130	-22.455530	-7.363006	-88.054090	 1.979841	-2.086223	-92.998190	-2.004575	 0.780887	-42.563900	 67.918750	 53.598940	-37.171920	-3.666631	 0.733478	-22.617210	-5.506311	 3.317836	-62.117350
 0.133576	-0.066441	 0.779143	 101.336400	 14.459090	 39.158850	 7.322157	 1.935100	 11.047010	-2.173666	 1.353497	-64.071060	 1.822434	-1.666470	-84.880200	 4.636218	-1.996922	-46.586830	-10.633310	-7.474164	-82.655810	 3.248017	-3.327522	-91.386280	 0.083036	-0.034765	-45.434750	-32.276600	-14.739210	-86.016930	 0.065432	-0.060951	-85.937560	-3.138048	 1.297253	-44.911280	-22.504370	-7.318151	-87.921570	 1.901276	-2.006450	-93.084160	-2.043161	 0.795904	-42.563350	 67.338170	 53.912100	-36.660270	-3.770617	 0.745965	-22.373890	-5.698305	 3.395418	-61.551790
 0.133853	-0.066724	 0.779234	 101.443500	 14.514830	 39.154920	 7.501087	 1.951584	 11.142450	-2.210726	 1.390946	-64.495570	 1.736197	-1.591326	-85.013120	 4.444685	-1.917011	-46.644540	-10.652770	-7.453576	-82.730800	 3.226964	-3.304329	-91.358110	 0.001605	-0.000672	-45.512990	-32.255490	-14.762680	-85.997210	 0.091033	-0.084875	-85.990110	-3.174378	 1.312942	-44.932090	-22.483760	-7.339507	-87.950000	 1.952929	-2.062383	-93.123540	-2.038730	 0.794733	-42.589920	 66.993900	 54.102650	-36.324670	-3.808048	 0.753694	-22.382900	-5.863955	 3.480343	-61.350920
 0.133936	-0.066966	 0.779291	 101.653400	 14.440580	 39.135700	 7.598346	 1.970498	 11.251870	-2.211559	 1.406164	-65.035390	 1.704221	-1.561867	-85.007950	 4.390012	-1.893122	-46.638210	-10.585350	-7.518742	-82.866000	 3.418856	-3.495387	-91.269170	-0.000878	 0.000371	-45.548430	-32.252560	-14.766300	-85.977500	 0.157166	-0.146609	-86.017390	-3.200291	 1.325036	-44.973920	-22.442340	-7.381822	-87.991010	 2.041403	-2.154692	-93.093780	-2.062184	 0.804324	-42.611310	 66.772790	 54.235780	-36.074010	-3.810621	 0.759848	-22.546360	-5.977244	 3.546155	-61.329350
 0.134624	-0.067630	 0.779065	 101.990200	 14.545120	 39.151520	 8.068060	 2.024084	 11.562250	-2.238913	 1.439207	-65.549820	 1.624853	-1.491020	-85.080900	 4.107759	-1.786487	-46.994450	-10.540860	-7.560669	-83.116040	 3.528611	-3.603078	-91.197270	-0.070791	 0.029763	-45.603440	-32.296610	-14.722130	-85.983890	 0.127083	-0.118759	-86.122300	-3.298268	 1.366701	-45.005910	-22.366520	-7.453729	-88.187690	 2.149354	-2.273943	-93.227520	-2.106383	 0.821629	-42.614570	 65.657620	 54.867040	-34.859780	-4.036292	 0.807820	-22.626820	-6.565481	 3.875650	-61.071020
 0.134706	-0.067607	 0.778606	 102.065700	 14.570880	 39.155070	 8.160479	 2.052238	 11.725480	-2.228542	 1.432099	-65.550900	 1.617767	-1.483854	-85.054780	 4.151676	-1.804112	-46.959860	-10.523580	-7.577833	-83.080230	 3.544841	-3.614999	-91.123600	 0.005730	-0.002402	-45.520760	-32.299460	-14.715400	-86.015540	 0.116056	-0.108387	-86.086870	-3.342495	 1.383810	-44.970100	-22.332890	-7.487761	-88.222480	 2.178964	-2.304267	-93.202610	-2.002441	 0.778108	-42.466720	 65.296130	 55.063360	-34.469010	-4.054585	 0.805575	-22.466240	-6.644912	 3.885440	-60.594820
 0.134459	-0.067221	 0.778150	 102.135800	 14.480140	 39.126620	 8.121298	 2.091573	 11.953680	-2.303743	 1.487070	-65.506430	 1.581481	-1.447944	-84.951470	 4.102740	-1.780581	-46.906960	-10.498190	-7.607292	-82.914240	 3.572585	-3.630685	-90.924860	 0.039694	-0.016691	-45.620540	-32.342710	-14.679070	-85.935110	 0.100368	-0.093426	-85.900890	-3.301629	 1.368778	-45.026060	-22.366970	-7.467220	-87.979300	 2.156546	-2.272173	-92.991950	-1.969139	 0.767184	-42.568800	 65.357320	 55.045820	-34.477860	-3.995237	 0.796835	-22.550280	-6.572450	 3.851978	-60.711530
 0.134070	-0.066989	 0.777769	 102.120800	 14.458470	 39.072730	 8.096659	 2.125775	 12.152320	-2.342773	 1.507692	-65.160670	 1.508421	-1.380810	-84.941130	 3.968667	-1.719541	-46.838630	-10.515050	-7.594830	-82.585950	 3.476139	-3.535981	-90.978450	 0.027328	-0.011461	-45.505120	-32.524200	-14.525660	-85.598040	-0.101631	 0.094711	-85.963110	-3.342199	 1.383289	-44.958440	-22.459360	-7.378162	-87.774200	 2.029944	-2.142795	-93.099400	-1.992046	 0.771017	-42.314050	 65.737470	 54.832300	-34.914520	-3.883054	 0.783236	-22.800130	-6.220372	 3.691086	-61.336760
 0.133451	-0.066952	 0.777601	 102.155800	 14.311560	 39.021060	 8.080629	 2.162831	 12.367680	-2.312910	 1.481203	-65.022140	 1.366352	-1.249698	-84.892830	 3.807443	-1.649420	-46.832890	-10.571760	-7.540458	-82.439930	 3.297516	-3.358157	-91.044460	-0.045078	 0.018883	-45.454010	-32.572240	-14.489050	-85.476580	-0.210283	 0.196413	-86.093000	-3.453417	 1.425699	-44.855120	-22.524790	-7.312097	-87.689480	 1.923498	-2.034354	-93.209720	-2.037209	 0.786477	-42.215350	 65.977370	 54.740900	-35.037850	-3.829267	 0.783433	-23.117120	-6.054645	 3.599899	-61.438520
 0.132888	-0.066825	 0.777434	 102.141000	 14.203690	 38.994510	 8.057699	 2.180487	 12.470410	-2.258073	 1.435775	-64.866920	 1.313174	-1.202874	-84.979010	 3.692137	-1.597367	-46.778720	-10.569900	-7.546551	-82.226830	 3.236706	-3.300115	-91.112120	-0.051292	 0.021497	-45.471170	-32.609620	-14.458000	-85.413410	-0.295029	 0.275720	-86.125140	-3.552695	 1.466396	-44.846730	-22.554950	-7.287229	-87.580510	 1.909847	-2.022467	-93.281720	-1.994328	 0.769897	-42.214300	 66.032760	 54.696580	-35.143430	-3.844836	 0.787139	-23.131940	-6.021655	 3.573599	-61.344580
 0.132789	-0.066728	 0.777420	 102.153700	 14.193940	 38.980110	 8.084967	 2.187397	 12.510540	-2.221095	 1.406100	-64.786180	 1.324618	-1.210552	-84.847200	 3.677612	-1.592932	-46.827320	-10.551710	-7.566731	-82.119270	 3.225477	-3.285328	-91.053800	-0.035665	 0.014970	-45.536720	-32.556210	-14.512680	-85.402750	-0.270989	 0.253151	-86.102440	-3.542047	 1.461912	-44.844300	-22.548220	-7.299160	-87.520130	 1.910459	-2.021052	-93.223120	-1.984595	 0.766775	-42.246240	 66.098870	 54.637490	-35.287420	-3.837717	 0.784988	-23.111910	-5.971218	 3.531014	-61.165540
 0.132620	-0.066605	 0.777479	 102.178400	 14.153120	 38.953550	 8.082386	 2.183272	 12.486550	-2.207433	 1.393366	-64.618610	 1.342160	-1.226056	-84.822840	 3.695865	-1.599670	-46.796850	-10.558120	-7.560843	-81.974890	 3.224767	-3.282502	-91.017070	-0.006243	 0.002623	-45.543240	-32.583480	-14.494880	-85.281430	-0.299540	 0.279750	-86.087590	-3.541852	 1.461619	-44.838370	-22.571460	-7.277126	-87.445250	 1.893901	-2.002572	-93.195450	-1.951239	 0.753692	-42.236100	 66.197150	 54.562410	-35.466480	-3.865460	 0.789738	-23.085580	-5.960054	 3.523260	-61.149330
 0.132383	-0.066473	 0.777540	 102.222500	 14.070650	 38.918630	 8.054970	 2.178493	 12.458770	-2.217875	 1.400074	-64.514210	 1.315347	-1.201842	-84.835700	 3.697884	-1.598668	-46.747750	-10.565880	-7.553499	-81.844100	 3.216088	-3.272855	-91.002950	 0.021926	-0.009202	-45.532730	-32.620810	-14.469080	-85.136120	-0.340873	 0.318204	-86.060130	-3.533581	 1.457683	-44.824070	-22.586750	-7.262302	-87.390800	 1.904755	-2.013567	-93.181900	-1.891550	 0.729536	-42.178420	 66.383570	 54.455470	-35.676820	-3.887940	 0.797503	-23.174720	-5.859041	 3.468936	-61.228080
 0.132152	-0.066321	 0.777637	 102.264100	 14.016450	 38.878260	 8.071718	 2.174872	 12.437700	-2.213490	 1.393585	-64.449870	 1.283494	-1.172389	-84.818800	 3.686249	-1.592287	-46.712430	-10.542160	-7.580441	-81.762840	 3.215994	-3.271685	-90.984070	 0.038824	-0.016277	-45.494310	-32.641910	-14.457200	-85.056970	-0.369408	 0.344844	-86.059840	-3.528600	 1.455057	-44.808010	-22.565010	-7.289920	-87.368540	 1.901711	-2.009271	-93.151340	-1.884953	 0.726124	-42.132420	 66.434200	 54.421380	-35.743890	-3.866301	 0.794102	-23.205190	-5.881514	 3.480899	-61.208580
 0.131939	-0.066171	 0.777706	 102.277300	 13.969760	 38.857300	 8.108123	 2.188014	 12.514140	-2.245637	 1.414812	-64.430800	 1.236424	-1.127873	-84.741980	 3.662202	-1.581174	-46.693440	-10.533500	-7.592450	-81.706190	 3.136455	-3.189676	-90.964400	 0.028118	-0.011781	-45.473190	-32.499280	-14.598160	-85.093580	-0.256875	 0.239672	-86.032220	-3.392966	 1.399789	-44.828220	-22.462420	-7.403068	-87.402540	 1.847333	-1.950194	-93.103720	-1.868436	 0.719825	-42.136070	 66.468240	 54.391810	-35.802970	-3.833154	 0.784786	-23.133300	-5.869715	 3.469129	-61.139500
 0.131808	-0.066050	 0.777839	 102.317400	 13.916080	 38.824110	 8.149579	 2.194793	 12.553580	-2.281284	 1.442135	-64.429260	 1.213001	-1.105928	-84.712600	 3.638153	-1.569486	-46.658890	-10.542610	-7.582609	-81.684370	 3.089412	-3.141588	-90.959920	 0.006968	-0.002921	-45.447230	-32.378120	-14.711310	-85.170520	-0.130206	 0.121401	-86.002840	-3.315532	 1.367797	-44.827120	-22.394230	-7.473719	-87.455540	 1.892203	-1.996006	-93.058980	-1.869115	 0.720343	-42.149900	 66.587210	 54.334850	-35.899860	-3.785029	 0.774934	-23.133030	-5.748257	 3.408683	-61.307830
 0.131694	-0.065952	 0.778037	 102.368300	 13.836230	 38.794550	 8.140860	 2.192740	 12.541650	-2.289707	 1.448677	-64.367120	 1.239890	-1.129469	-84.662970	 3.677611	-1.586464	-46.657680	-10.565700	-7.557845	-81.650410	 3.071854	-3.123056	-90.947660	 0.003019	-0.001257	-45.415760	-32.409860	-14.676900	-85.178020	-0.142317	 0.132764	-86.018570	-3.320234	 1.369081	-44.807480	-22.428020	-7.434346	-87.451820	 1.881814	-1.984340	-93.038830	-1.854508	 0.714275	-42.125930	 66.725060	 54.262200	-36.034640	-3.798342	 0.776754	-23.106560	-5.704026	 3.387660	-61.385810
